HIERARCHY
ROOT hip
{
  OFFSET 0 0 0
  CHANNELS 6 Xposition Yposition Zposition Zrotation Yrotation Xrotation
  JOINT abdomen
  {
    OFFSET 0 20.6881 -0.73152
    CHANNELS 3 Zrotation Xrotation Yrotation
    JOINT chest
    {
      OFFSET 0 11.7043 -0.48768
      CHANNELS 3 Zrotation Xrotation Yrotation
      JOINT neck
      {
        OFFSET 0 22.1894 -2.19456
        CHANNELS 3 Zrotation Xrotation Yrotation
        JOINT head
        {
          OFFSET -0.24384 7.07133 1.2192
          CHANNELS 3 Zrotation Xrotation Yrotation
          JOINT leftEye
          {
            OFFSET 4.14528 8.04674 8.04672
            CHANNELS 3 Zrotation Xrotation Yrotation
            End Site
            {
              OFFSET 1 0 0
            }
          }
          JOINT rightEye
          {
            OFFSET -3.6576 8.04674 8.04672
            CHANNELS 3 Zrotation Xrotation Yrotation
            End Site
            {
              OFFSET 1 0 0
            }
          }
        }
      }
      JOINT rCollar
      {
        OFFSET -2.68224 19.2634 -4.8768
        CHANNELS 3 Zrotation Xrotation Yrotation
        JOINT rShldr
        {
          OFFSET -8.77824 -1.95073 1.46304
          CHANNELS 3 Zrotation Xrotation Yrotation
          JOINT rForeArm
          {
            OFFSET -28.1742 -1.7115 0.48768
            CHANNELS 3 Zrotation Xrotation Yrotation
            JOINT rHand
            {
              OFFSET -22.5879 0.773209 7.07136
              CHANNELS 3 Zrotation Xrotation Yrotation
              JOINT rThumb1
              {
                OFFSET -1.2192 -0.487915 3.41376
                CHANNELS 3 Zrotation Xrotation Yrotation
                JOINT rThumb2
                {
                  OFFSET -3.37035 -0.52449 3.41376
                  CHANNELS 3 Zrotation Xrotation Yrotation
                  End Site
                  {
                    OFFSET -1.78271 -1.18214 1.43049
                  }
                }
              }
              JOINT rIndex1
              {
                OFFSET -7.75947 0.938293 5.60832
                CHANNELS 3 Zrotation Xrotation Yrotation
                JOINT rIndex2
                {
                  OFFSET -2.54057 -0.884171 1.56538
                  CHANNELS 3 Zrotation Xrotation Yrotation
                  End Site
                  {
                    OFFSET -1.62519 -0.234802 1.16502
                  }
                }
              }
              JOINT rMid1
              {
                OFFSET -8.24714 1.18213 3.41376
                CHANNELS 3 Zrotation Xrotation Yrotation
                JOINT rMid2
                {
                  OFFSET -3.10165 -0.590103 1.0647
                  CHANNELS 3 Zrotation Xrotation Yrotation
                  End Site
                  {
                    OFFSET -2.48547 -0.328903 0.83742
                  }
                }
              }
              JOINT rRing1
              {
                OFFSET -8.82822 0.546677 1.51678
                CHANNELS 3 Zrotation Xrotation Yrotation
                JOINT rRing2
                {
                  OFFSET -2.60934 -0.819778 -0.0198488
                  CHANNELS 3 Zrotation Xrotation Yrotation
                  End Site
                  {
                    OFFSET -2.33842 -0.294052 0.168128
                  }
                }
              }
              JOINT rPinky1
              {
                OFFSET -8.27202 -0.0477905 -0.4584
                CHANNELS 3 Zrotation Xrotation Yrotation
                JOINT rPinky2
                {
                  OFFSET -1.82734 -0.647385 -0.700984
                  CHANNELS 3 Zrotation Xrotation Yrotation
                  End Site
                  {
                    OFFSET -1.69225 -0.51767 -0.607171
                  }
                }
              }
            }
          }
        }
      }
      JOINT lCollar
      {
        OFFSET 2.68224 19.2634 -4.8768
        CHANNELS 3 Zrotation Xrotation Yrotation
        JOINT lShldr
        {
          OFFSET 8.77824 -1.95073 1.46304
          CHANNELS 3 Zrotation Xrotation Yrotation
          JOINT lForeArm
          {
            OFFSET 28.1742 -1.7115 0.48768
            CHANNELS 3 Zrotation Xrotation Yrotation
            JOINT lHand
            {
              OFFSET 22.5879 0.773209 7.07136
              CHANNELS 3 Zrotation Xrotation Yrotation
              JOINT lThumb1
              {
                OFFSET 1.2192 -0.487915 3.41376
                CHANNELS 3 Zrotation Xrotation Yrotation
                JOINT lThumb2
                {
                  OFFSET 3.37035 -0.52449 3.41376
                  CHANNELS 3 Zrotation Xrotation Yrotation
                  End Site
                  {
                    OFFSET 1.78271 -1.18214 1.43049
                  }
                }
              }
              JOINT lIndex1
              {
                OFFSET 7.75947 0.938293 5.60832
                CHANNELS 3 Zrotation Xrotation Yrotation
                JOINT lIndex2
                {
                  OFFSET 2.54057 -0.884171 1.56538
                  CHANNELS 3 Zrotation Xrotation Yrotation
                  End Site
                  {
                    OFFSET 1.62519 -0.234802 1.16502
                  }
                }
              }
              JOINT lMid1
              {
                OFFSET 8.24714 1.18213 3.41376
                CHANNELS 3 Zrotation Xrotation Yrotation
                JOINT lMid2
                {
                  OFFSET 3.10165 -0.590103 1.0647
                  CHANNELS 3 Zrotation Xrotation Yrotation
                  End Site
                  {
                    OFFSET 2.48547 -0.328903 0.83742
                  }
                }
              }
              JOINT lRing1
              {
                OFFSET 8.82822 0.546677 1.51678
                CHANNELS 3 Zrotation Xrotation Yrotation
                JOINT lRing2
                {
                  OFFSET 2.60934 -0.819778 -0.0198488
                  CHANNELS 3 Zrotation Xrotation Yrotation
                  End Site
                  {
                    OFFSET 2.33842 -0.294052 0.168128
                  }
                }
              }
              JOINT lPinky1
              {
                OFFSET 8.27202 -0.0477905 -0.4584
                CHANNELS 3 Zrotation Xrotation Yrotation
                JOINT lPinky2
                {
                  OFFSET 1.82734 -0.647385 -0.700984
                  CHANNELS 3 Zrotation Xrotation Yrotation
                  End Site
                  {
                    OFFSET 1.69225 -0.51767 -0.607171
                  }
                }
              }
            }
          }
        }
      }
    }
  }
  JOINT rButtock
  {
    OFFSET -8.77824 4.35084 1.2192
    CHANNELS 3 Zrotation Xrotation Yrotation
    JOINT rThigh
    {
      OFFSET 0 -1.70687 -2.19456
      CHANNELS 3 Zrotation Xrotation Yrotation
      JOINT rShin
      {
        OFFSET 0 -36.8199 0.73152
        CHANNELS 3 Zrotation Xrotation Yrotation
        JOINT rFoot
        {
          OFFSET 0.73152 -45.1104 -5.12064
          CHANNELS 3 Zrotation Xrotation Yrotation
          End Site
          {
            OFFSET -1.1221 -3.69964 12.103
          }
        }
      }
    }
  }
  JOINT lButtock
  {
    OFFSET 8.77824 4.35084 1.2192
    CHANNELS 3 Zrotation Xrotation Yrotation
    JOINT lThigh
    {
      OFFSET 0 -1.70687 -2.19456
      CHANNELS 3 Zrotation Xrotation Yrotation
      JOINT lShin
      {
        OFFSET 0 -36.8199 0.73152
        CHANNELS 3 Zrotation Xrotation Yrotation
        JOINT lFoot
        {
          OFFSET -0.73152 -45.1104 -5.12064
          CHANNELS 3 Zrotation Xrotation Yrotation
          End Site
          {
            OFFSET 1.1221 -3.69964 12.103
          }
        }
      }
    }
  }
}
MOTION
Frames:	4
Frame Time:	0.00833333
29.7034 71.5807 24.9129 185.493 -40.696 -175.497 -7.11465 47.7347 9.3947 2.4845 -6.18999 0.352971 -17.3986 11.1173 -4.24408 49.3986 -50.0786 12.7652 -0.0 0.0 0.0 -0.0 0.0 0.0 1.71719e-13 -3.18019e-13 6.68413e-14 64.2033 -15.4642 3.17429 -19.0099 -11.8153 36.3273 -0.762986 -24.0029 -3.58799 6.17845e-10 -1.27223e-09 -5.21143e-10 1.08344e-09 -2.22047e-09 -8.919e-10 6.17844e-10 -1.27223e-09 -5.21153e-10 7.73091 5.47488 0.417314 6.17844e-10 -1.27223e-09 -5.2115e-10 2.90554 0.965183 0.102902 6.17852e-10 -1.27223e-09 -5.21143e-10 10.2786 0.731801 0.0259123 6.17837e-10 -1.27223e-09 -5.21137e-10 2.22167 -0.733487 -0.20892 1.71792e-13 -3.18092e-13 6.66923e-14 -40.1004 -21.1271 -16.3878 28.0693 -31.0421 -68.9148 0.882873 -25.6715 3.87338 2.66707e-10 -2.5869e-10 1.24923e-09 4.38744e-10 -4.58286e-10 2.16221e-09 2.66702e-10 -2.58696e-10 1.24922e-09 -7.73091 5.47488 -0.417314 2.66705e-10 -2.58696e-10 1.24922e-09 -2.90554 0.965183 -0.102902 2.66702e-10 -2.58694e-10 1.24923e-09 -10.2786 0.731801 -0.0259123 2.66713e-10 -2.58691e-10 1.24922e-09 -2.22167 -0.733487 0.20892 -2.03217e-16 0.0 -3.88251e-19 -36.2059 -42.9147 -58.6968 -8.48435 83.4219 8.71744 -0.236251 -3.97185 0.910631 2.03217e-16 0.0 3.88251e-19 60.7846 -51.3263 75.6709 26.9901 87.7004 -27.2592 -0.352428 0.58656 -7.30647
30.9887 71.3794 23.8259 186.106 -40.3431 -176.033 -6.6918 48.0923 9.45503 2.66476 -6.2749 0.374689 -17.282 10.7399 -4.19051 49.4019 -50.2235 12.9492 -0.0 0.0 0.0 -0.0 0.0 0.0 2.76371e-13 -2.06637e-13 -8.82119e-14 64.7163 -16.912 3.72309 -18.4835 -11.2181 35.1135 -0.688128 -22.9132 -3.40483 4.57579e-10 -1.62398e-09 -1.0448e-09 8.1704e-10 -2.84066e-09 -1.8034e-09 4.57579e-10 -1.62398e-09 -1.0448e-09 7.73091 5.47488 0.417314 4.57579e-10 -1.62399e-09 -1.0448e-09 2.90554 0.965183 0.102902 4.57586e-10 -1.62399e-09 -1.0448e-09 10.2786 0.731801 0.0259123 4.57573e-10 -1.62399e-09 -1.04479e-09 2.22167 -0.733487 -0.20892 2.7644e-13 -2.06686e-13 -8.83485e-14 -40.5083 -21.232 -16.2278 28.0969 -31.2226 -69.2021 0.876795 -25.5909 3.8594 8.4867e-10 -2.01842e-10 2.26597e-09 1.4262e-09 -3.70382e-10 3.92564e-09 8.48665e-10 -2.01847e-10 2.26597e-09 -7.73091 5.47488 -0.417314 8.48668e-10 -2.01848e-10 2.26597e-09 -2.90554 0.965183 -0.102902 8.48665e-10 -2.01846e-10 2.26597e-09 -10.2786 0.731801 -0.0259123 8.48676e-10 -2.01844e-10 2.26596e-09 -2.22167 -0.733487 0.20892 -2.03217e-16 0.0 -3.88251e-19 -35.7913 -42.9549 -56.9172 -7.18536 82.4046 7.44812 -0.621232 -4.90339 -0.858273 2.03217e-16 0.0 3.88251e-19 60.7557 -51.8734 75.5317 26.7599 87.6886 -27.0566 -0.316863 3.02821 -9.82618
32.2974 71.0481 22.7782 186.693 -39.9485 -176.431 -6.32969 48.4802 9.56364 2.78347 -6.28796 0.38586 -17.1186 10.2924 -4.16718 49.1764 -50.372 12.9683 -0.0 0.0 0.0 -0.0 0.0 0.0 3.76847e-13 -1.84798e-14 -2.87396e-13 65.3721 -18.6068 4.42014 -17.9488 -10.6395 33.8888 -0.60994 -21.685 -3.20227 2.53851e-10 -2.15775e-09 -1.68266e-09 4.76443e-10 -3.77672e-09 -2.91354e-09 2.53854e-10 -2.15775e-09 -1.68267e-09 7.73091 5.47488 0.417314 2.53852e-10 -2.15775e-09 -1.68267e-09 2.90554 0.965183 0.102902 2.53859e-10 -2.15775e-09 -1.68267e-09 10.2786 0.731801 0.0259123 2.53848e-10 -2.15775e-09 -1.68267e-09 2.22167 -0.733487 -0.20892 3.76904e-13 -1.84935e-14 -2.87514e-13 -41.0417 -21.4169 -16.1634 28.1256 -31.4215 -69.5226 0.866214 -25.4491 3.83485 1.56144e-09 -1.0722e-10 3.46668e-09 2.63662e-09 -2.19398e-10 6.00846e-09 1.56144e-09 -1.07225e-10 3.46668e-09 -7.73091 5.47488 -0.417314 1.56144e-09 -1.07226e-10 3.46668e-09 -2.90554 0.965183 -0.102902 1.56144e-09 -1.07225e-10 3.46668e-09 -10.2786 0.731801 -0.0259123 1.56145e-09 -1.07223e-10 3.46667e-09 -2.22167 -0.733487 0.20892 -2.03217e-16 0.0 -3.88251e-19 -35.3228 -42.9596 -54.5611 -6.02951 81.1942 6.32861 -1.00125 -5.85843 -2.40011 2.03217e-16 0.0 3.88251e-19 60.4215 -52.4104 74.8547 22.8682 87.3523 -23.2129 0.0963361 6.22844 -12.3612
33.6117 70.7263 21.7027 187.453 -39.5103 -176.995 -6.01742 48.8475 9.70189 2.86867 -6.28965 0.398063 -16.9623 9.82818 -4.15191 48.8732 -50.4865 12.9271 -0.0 0.0 0.0 -0.0 0.0 0.0 4.36779e-13 1.62224e-13 -4.47816e-13 66.0679 -20.2982 5.10263 -17.4487 -10.1143 32.7735 -0.544028 -20.5362 -3.01683 1.45461e-10 -2.60576e-09 -2.16652e-09 2.97089e-10 -4.56034e-09 -3.75511e-09 1.45466e-10 -2.60577e-09 -2.16653e-09 7.73091 5.47488 0.417314 1.45462e-10 -2.60577e-09 -2.16652e-09 2.90554 0.965183 0.102902 1.45468e-10 -2.60577e-09 -2.16653e-09 10.2786 0.731801 0.0259123 1.4546e-10 -2.60577e-09 -2.16653e-09 2.22167 -0.733487 -0.20892 4.36814e-13 1.62243e-13 -4.47918e-13 -41.6916 -21.593 -16.1586 28.155 -31.6353 -69.868 0.853748 -25.28 3.8057 2.09391e-09 -5.83796e-12 4.32798e-09 3.54177e-09 -5.30696e-11 7.50248e-09 2.0939e-09 -5.84242e-12 4.32799e-09 -7.73091 5.47488 -0.417314 2.0939e-09 -5.84405e-12 4.32799e-09 -2.90554 0.965183 -0.102902 2.0939e-09 -5.84377e-12 4.32798e-09 -10.2786 0.731801 -0.0259123 2.09391e-09 -5.84176e-12 4.32797e-09 -2.22167 -0.733487 0.20892 -2.03217e-16 0.0 -3.88251e-19 -34.9169 -42.9026 -51.9962 -5.04512 79.8093 5.37839 -1.41407 -6.65432 -3.93696 2.03217e-16 0.0 3.88251e-19 59.8275 -52.8742 73.8071 18.4659 86.8042 -18.8627 0.70033 9.02474 -14.484
